<svg version="1.1" viewBox="0.0 0.0 956.6351706036745 549.9238845144357" fill="none" stroke="none" stroke-linecap="square" stroke-miterlimit="10" xmlns:xlink="http://www.w3.org/1999/xlink" xmlns="http://www.w3.org/2000/svg"><clipPath id="p.0"><path d="m0 0l956.6352 0l0 549.9239l-956.6352 0l0 -549.9239z" clip-rule="nonzero"/></clipPath><g clip-path="url(#p.0)"><path fill="#000000" fill-opacity="0.0" d="m0 0l956.6352 0l0 549.9239l-956.6352 0z" fill-rule="evenodd"/><path fill="#000000" fill-opacity="0.0" d="m22.204725 0l924.59845 0l0 584.9764l-924.59845 0z" fill-rule="evenodd"/><path fill="#000000" d="m409.8922 354.10934q4.4375 3.953125 4.4375 10.03125q0 6.0625 -4.203125 10.265625l-66.265625 0l26.609375 88.65625q0.921875 3.265625 0.921875 8.390625q0 5.140625 -6.53125 12.609375q-6.53125 7.46875 -13.53125 7.46875q-13.0625 0 -20.53125 -6.53125l-33.140625 -110.59375l-118.98436 0l-23.34375 63.453125q-12.125 32.203125 -35.0 55.53125q-22.859375 23.34378 -59.26563 23.34378q-27.53125 0 -43.15625 -14.4687805q-15.640626 -14.46875 -15.640626 -42.0q0 -27.53125 13.3125 -49.6875q13.296876 -22.171875 35.21875 -34.78125q43.875004 -25.1875 98.0 -25.1875l68.140625 -192.26562q4.65625 -13.53125 9.796875 -20.0625q-14.46875 -48.546875 -14.46875 -53.4375q0 -4.90625 6.765625 -11.203125q6.765625 -6.296875 13.765625 -6.296875q13.53125 0 21.0 6.53125l82.593735 276.73438l61.140625 -0.46875q7.9375 0 12.359375 3.96875zm-348.82812 143.01562q35.000004 0 60.67188 -70.453125l18.203125 -51.796875q-51.328125 0 -81.4375 24.265625q-30.093748 24.265625 -30.093748 63.921875q0 16.34375 9.093748 25.203125q9.109375 8.859375 23.5625 8.859375zm183.40625 -322.92188l-56.9375 176.40625l102.67186 0l-45.73436 -176.40625z" fill-rule="nonzero"/><path fill="#000000" d="m445.60187 242.59372q0 7.609375 2.390625 14.8125q-2.390625 4.796875 -10.796875 4.796875q-8.40625 0 -14.40625 -6.0q-6.0 -6.0 -6.0 -16.0q0 -22.796875 19.40625 -42.203125q19.40625 -19.40625 47.59375 -29.59375q28.203125 -10.203125 57.0 -10.203125q134.40625 0 134.40625 96.390625q0 25.203125 -15.203125 45.015625q-15.203125 19.796875 -35.40625 29.0q-20.1875 9.1875 -39.390625 9.1875q22.40625 0 39.796875 10.0q17.40625 10.0 28.40625 26.0q11.0 16.0 20.390625 35.40625q9.40625 19.390625 18.609375 39.0q9.203125 19.59375 20.0 35.59375q10.796875 16.0 27.796875 26.0q17.0 10.0000305 39.0 10.0000305q10.0 0 16.40625 -4.0q6.0 0.40625 6.0 6.796875q0 13.609375 -28.0 13.609375q-28.0 0 -50.0 -10.40625q-22.0 -10.390625 -35.609375 -27.203156q-13.59375 -16.796875 -24.59375 -37.0q-11.0 -20.1875 -20.609375 -40.1875q-9.59375 -20.0 -20.203125 -36.796875q-10.59375 -16.8125 -27.0 -27.203125q-16.390625 -10.40625 -37.59375 -10.40625q-10.390625 0 -10.390625 -11.203125q0 -4.796875 3.1875 -7.1875q3.203125 -2.40625 7.203125 -2.40625q37.203125 0 58.796875 -21.796875q21.609375 -21.8125 21.609375 -49.8125q0 -39.1875 -26.40625 -57.984375q-26.390625 -18.8125 -65.796875 -18.8125q-39.40625 0 -70.0 18.609375q-30.59375 18.59375 -30.59375 46.1875zm46.390625 -11.59375q0 -12.0 6.0 -18.203125q6.0 -6.203125 14.390625 -6.203125q8.40625 0 16.40625 5.609375l0 176.39062q0 42.0 -15.796875 66.8125q-15.796875 24.796875 -47.59375 24.796875q-31.796875 0 -47.796875 -14.609375q-16.0 -14.59375 -16.0 -38.59375q0 -30.796875 20.0 -30.796875q4.796875 0 8.40625 2.40625q3.59375 2.390625 5.984375 6.796875q-3.203125 8.390625 -3.203125 24.796875q0 16.390625 8.59375 25.0q8.609375 8.59375 21.8125 8.59375q28.796875 0 28.796875 -51.203125l0 -181.59375z" fill-rule="nonzero"/><path fill="#000000" d="m927.99567 380.99997q1.65625 -2.0 5.828125 -2.0q4.171875 0 6.828125 3.0q2.671875 3.0 2.671875 11.34375q0 8.328125 -5.5 22.15625q-5.5 13.828125 -16.171875 27.671875q-10.65625 13.828125 -29.5 22.828125q-18.828125 9.0 -42.15625 9.0q-54.0 0 -86.671875 -34.828125q-32.65625 -34.84375 -32.65625 -99.328125q0 -64.5 30.828125 -97.0q30.828125 -32.5 80.828125 -32.5q32.328125 0 50.65625 16.671875q18.34375 16.65625 18.34375 36.984375q0 8.34375 -5.0 13.34375q-5.0 5.0 -10.0 5.0q-9.328125 0 -12.671875 -4.0q2.0 -5.0 2.0 -12.34375q0 -18.0 -11.5 -28.65625q-11.484375 -10.671875 -33.484375 -10.671875q-33.0 0 -56.171875 31.5q-23.171875 31.5 -23.171875 83.5q0 52.0 25.671875 83.828125q25.671875 31.828125 61.65625 31.828125q36.0 0 57.671875 -21.828125q21.671875 -21.828125 21.671875 -55.5z" fill-rule="nonzero"/></g></svg>